<?xml version="1.0" encoding="UTF-8" standalone="no"?>
<!-- Created with Inkscape (http://www.inkscape.org/) -->
<svg
   xmlns:dc="http://purl.org/dc/elements/1.1/"
   xmlns:cc="http://web.resource.org/cc/"
   xmlns:rdf="http://www.w3.org/1999/02/22-rdf-syntax-ns#"
   xmlns:svg="http://www.w3.org/2000/svg"
   xmlns="http://www.w3.org/2000/svg"
   xmlns:xlink="http://www.w3.org/1999/xlink"
   xmlns:sodipodi="http://inkscape.sourceforge.net/DTD/sodipodi-0.dtd"
   xmlns:inkscape="http://www.inkscape.org/namespaces/inkscape"
   width="290"
   height="280"
   id="svg4325"
   sodipodi:version="0.32"
   inkscape:version="0.43"
   sodipodi:docbase="/tmp"
   sodipodi:docname="blabb.svg"
   version="1.0">
  <defs
     id="defs4327">
    <linearGradient
       id="linearGradient9763">
      <stop
         id="stop9765"
         offset="0"
         style="stop-color:#c5c5c5;stop-opacity:1;" />
      <stop
         id="stop9767"
         offset="1"
         style="stop-color:#ffffff;stop-opacity:0;" />
    </linearGradient>
    <linearGradient
       id="linearGradient6135">
      <stop
         style="stop-color:#ffffff;stop-opacity:1;"
         offset="0"
         id="stop6137" />
      <stop
         style="stop-color:#000000;stop-opacity:1;"
         offset="1"
         id="stop6139" />
    </linearGradient>
    <radialGradient
       inkscape:collect="always"
       xlink:href="#linearGradient9763"
       id="radialGradient9809"
       gradientUnits="userSpaceOnUse"
       gradientTransform="matrix(0.898196,-6.340799e-3,7.389796e-3,0.77699,51.78718,59.93783)"
       cx="527.51306"
       cy="259.31982"
       fx="527.51306"
       fy="259.31982"
       r="147.48227" />
    <radialGradient
       inkscape:collect="always"
       xlink:href="#linearGradient9763"
       id="radialGradient9811"
       gradientUnits="userSpaceOnUse"
       gradientTransform="matrix(0.898196,-6.340799e-3,7.389796e-3,0.77699,51.78718,59.93783)"
       cx="527.51306"
       cy="259.31982"
       fx="527.51306"
       fy="259.31982"
       r="147.48227" />
    <radialGradient
       inkscape:collect="always"
       xlink:href="#linearGradient6135"
       id="radialGradient9840"
       gradientUnits="userSpaceOnUse"
       gradientTransform="matrix(1.591109,1.282383e-2,1.193216e-2,0.528623,-260.6612,189.1908)"
       cx="260.62903"
       cy="156.41788"
       fx="260.63068"
       fy="156.4169"
       r="63.214287" />
    <radialGradient
       inkscape:collect="always"
       xlink:href="#linearGradient6135"
       id="radialGradient9842"
       gradientUnits="userSpaceOnUse"
       gradientTransform="matrix(-0.110123,3.472927,-1.384115,-4.253782e-2,724.8503,-864.6578)"
       cx="333.18796"
       cy="295.7811"
       fx="333.18845"
       fy="295.78094"
       r="19.285715" />
    <radialGradient
       inkscape:collect="always"
       xlink:href="#linearGradient6135"
       id="radialGradient9844"
       gradientUnits="userSpaceOnUse"
       gradientTransform="matrix(-5.992758e-2,3.410253,-1.582306,-6.246349e-3,539.3855,-776.7315)"
       cx="291.44238"
       cy="193.22902"
       fx="291.44302"
       fy="193.22888"
       r="28.284271" />
    <radialGradient
       inkscape:collect="always"
       xlink:href="#linearGradient6135"
       id="radialGradient9846"
       gradientUnits="userSpaceOnUse"
       gradientTransform="matrix(0.775062,-0.631885,1.010737,1.239756,-265.9801,96.8127)"
       cx="262.20862"
       cy="310.74536"
       fx="262.20862"
       fy="310.74536"
       r="46.642075" />
    <radialGradient
       inkscape:collect="always"
       xlink:href="#linearGradient6135"
       id="radialGradient9858"
       gradientUnits="userSpaceOnUse"
       gradientTransform="matrix(1.591109,1.282383e-2,1.193216e-2,0.528623,-260.6612,189.1908)"
       cx="260.62903"
       cy="156.41788"
       fx="260.63068"
       fy="156.4169"
       r="63.214287" />
    <radialGradient
       inkscape:collect="always"
       xlink:href="#linearGradient6135"
       id="radialGradient9860"
       gradientUnits="userSpaceOnUse"
       gradientTransform="matrix(-0.110123,3.472927,-1.384115,-4.253782e-2,724.8503,-864.6578)"
       cx="333.18796"
       cy="295.7811"
       fx="333.18845"
       fy="295.78094"
       r="19.285715" />
    <radialGradient
       inkscape:collect="always"
       xlink:href="#linearGradient6135"
       id="radialGradient9862"
       gradientUnits="userSpaceOnUse"
       gradientTransform="matrix(-5.992758e-2,3.410253,-1.582306,-6.246349e-3,539.3855,-776.7315)"
       cx="291.44238"
       cy="193.22902"
       fx="291.44302"
       fy="193.22888"
       r="28.284271" />
    <radialGradient
       inkscape:collect="always"
       xlink:href="#linearGradient6135"
       id="radialGradient9864"
       gradientUnits="userSpaceOnUse"
       gradientTransform="matrix(0.775062,-0.631885,1.010737,1.239756,-265.9801,96.8127)"
       cx="262.20862"
       cy="310.74536"
       fx="262.20862"
       fy="310.74536"
       r="46.642075" />
  </defs>
  <sodipodi:namedview
     id="base"
     pagecolor="#ffffff"
     bordercolor="#666666"
     borderopacity="1.0"
     inkscape:pageopacity="0"
     inkscape:pageshadow="2"
     inkscape:zoom="1.4"
     inkscape:cx="152.72831"
     inkscape:cy="77.417748"
     inkscape:document-units="px"
     inkscape:current-layer="g9769"
     showguides="true"
     inkscape:guide-bbox="true"
     inkscape:window-width="823"
     inkscape:window-height="630"
     inkscape:window-x="450"
     inkscape:window-y="311" />
  <metadata
     id="metadata4330">
    <rdf:RDF>
      <cc:Work
         rdf:about="">
        <dc:format>image/svg+xml</dc:format>
        <dc:type
           rdf:resource="http://purl.org/dc/dcmitype/StillImage" />
        <dc:title>Sp3 Orbital</dc:title>
        <dc:date>30.06.2006</dc:date>
        <dc:creator>
          <cc:Agent>
            <dc:title>Sven K</dc:title>
          </cc:Agent>
        </dc:creator>
        <dc:description>for example a C-Atom</dc:description>
      </cc:Work>
    </rdf:RDF>
  </metadata>
  <g
     inkscape:label="Ebene 1"
     inkscape:groupmode="layer"
     id="layer1">
    <path
       sodipodi:type="arc"
       style="opacity:0.85488957;color:#000000;fill:url(#radialGradient9809);fill-opacity:1;fill-rule:evenodd;stroke:url(#radialGradient9811);stroke-width:1.9217608;stroke-linecap:butt;stroke-linejoin:miter;marker:none;marker-start:none;marker-mid:none;marker-end:none;stroke-miterlimit:4;stroke-dasharray:none;stroke-dashoffset:0;stroke-opacity:1;visibility:visible;display:inline;overflow:visible"
       id="path9751"
       sodipodi:cx="521.23871"
       sodipodi:cy="247.2706"
       sodipodi:rx="147.48227"
       sodipodi:ry="132.32999"
       d="M 668.72098 247.2706 A 147.48227 132.32999 0 1 1  373.75644,247.2706 A 147.48227 132.32999 0 1 1  668.72098 247.2706 z"
       transform="matrix(0.965984,0,0,1.121221,-358.5082,-137.245)" />
    <g
       id="g9769"
       transform="translate(-342.4649,-107.5661)">
      <g
         id="g9848"
         style="opacity:0.32176657"
         transform="translate(287.0058,-5.310731)">
        <path
           sodipodi:nodetypes="csssc"
           id="path9850"
           d="M 224.28571,273.07648 C 224.28571,286.87648 195.96571,298.07648 161.07143,298.07648 C 126.17714,298.07648 97.85714,286.87648 97.85714,273.07648 C 97.85714,259.27648 123.97317,245.8853 158.86746,245.8853 C 193.76174,245.8853 224.28571,259.27648 224.28571,273.07648 z "
           style="color:#000000;fill:url(#radialGradient9858);fill-opacity:1;fill-rule:evenodd;stroke:none;stroke-width:0.96657592;stroke-linecap:butt;stroke-linejoin:miter;marker:none;marker-start:none;marker-mid:none;marker-end:none;stroke-miterlimit:4;stroke-dashoffset:0;stroke-opacity:1;visibility:visible;display:inline;overflow:visible"
           transform="matrix(0.969676,-0.336031,0.328592,0.989959,-89.5713,76.17393)" />
        <path
           transform="matrix(8.733546e-2,1.140962,-0.983818,7.905314e-2,499.2775,-69.2519)"
           d="M 298.57142 272.36218 A 19.285715 54.285713 0 1 1  259.99999,272.36218 A 19.285715 54.285713 0 1 1  298.57142 272.36218 z"
           sodipodi:ry="54.285713"
           sodipodi:rx="19.285715"
           sodipodi:cy="272.36218"
           sodipodi:cx="279.28571"
           id="path9852"
           style="opacity:1;color:#000000;fill:url(#radialGradient9860);fill-opacity:1;fill-rule:evenodd;stroke:none;stroke-width:0.94096941;stroke-linecap:butt;stroke-linejoin:miter;marker:none;marker-start:none;marker-mid:none;marker-end:none;stroke-miterlimit:4;stroke-dasharray:none;stroke-dashoffset:0;stroke-opacity:1;visibility:visible;display:inline;overflow:visible"
           sodipodi:type="arc" />
        <path
           transform="matrix(1,0,0,0.942341,-3.030458,6.041437)"
           d="M 244.45691 209.89496 A 28.284271 69.700523 0 1 1  187.88837,209.89496 A 28.284271 69.700523 0 1 1  244.45691 209.89496 z"
           sodipodi:ry="69.700523"
           sodipodi:rx="28.284271"
           sodipodi:cy="209.89496"
           sodipodi:cx="216.17264"
           id="path9854"
           style="opacity:1;color:#000000;fill:url(#radialGradient9862);fill-opacity:1;fill-rule:evenodd;stroke:none;stroke-width:5.15069628;stroke-linecap:butt;stroke-linejoin:miter;marker:none;marker-start:none;marker-mid:none;marker-end:none;stroke-miterlimit:4;stroke-dasharray:none;stroke-dashoffset:0;stroke-opacity:1;visibility:visible;display:inline;overflow:visible"
           sodipodi:type="arc" />
        <path
           sodipodi:nodetypes="csssc"
           id="path9856"
           d="M 270.38774,291.60225 C 290.89038,314.40038 301.17573,347.2145 287.39227,359.79578 C 271.37328,374.41762 240.61452,359.61409 220.11187,336.81596 C 199.60923,314.01783 194.23119,285.38712 208.10733,272.90813 C 221.98347,260.42915 249.88509,268.80411 270.38774,291.60225 z "
           style="opacity:1;color:#000000;fill:url(#radialGradient9864);fill-opacity:1;fill-rule:evenodd;stroke:none;stroke-width:0.99999964;stroke-linecap:butt;stroke-linejoin:miter;marker:none;marker-start:none;marker-mid:none;marker-end:none;stroke-miterlimit:4;stroke-dashoffset:0;stroke-opacity:1;visibility:visible;display:inline;overflow:visible" />
      </g>
      <g
         transform="translate(285.1589,-6.652645)"
         style="opacity:1"
         id="g8794">
        <path
           transform="matrix(0.969676,-0.336031,0.328592,0.989959,-89.5713,76.17393)"
           style="color:#000000;fill:url(#radialGradient9840);fill-opacity:1;fill-rule:evenodd;stroke:none;stroke-width:0.96657592;stroke-linecap:butt;stroke-linejoin:miter;marker:none;marker-start:none;marker-mid:none;marker-end:none;stroke-miterlimit:4;stroke-dashoffset:0;stroke-opacity:1;visibility:visible;display:inline;overflow:visible"
           d="M 224.28571,273.07648 C 224.28571,286.87648 195.96571,298.07648 161.07143,298.07648 C 126.17714,298.07648 97.85714,286.87648 97.85714,273.07648 C 97.85714,259.27648 123.97317,245.8853 158.86746,245.8853 C 193.76174,245.8853 224.28571,259.27648 224.28571,273.07648 z "
           id="path5255"
           sodipodi:nodetypes="csssc" />
        <path
           sodipodi:type="arc"
           style="opacity:1;color:#000000;fill:url(#radialGradient9842);fill-opacity:1;fill-rule:evenodd;stroke:none;stroke-width:0.94096941;stroke-linecap:butt;stroke-linejoin:miter;marker:none;marker-start:none;marker-mid:none;marker-end:none;stroke-miterlimit:4;stroke-dasharray:none;stroke-dashoffset:0;stroke-opacity:1;visibility:visible;display:inline;overflow:visible"
           id="path5260"
           sodipodi:cx="279.28571"
           sodipodi:cy="272.36218"
           sodipodi:rx="19.285715"
           sodipodi:ry="54.285713"
           d="M 298.57142 272.36218 A 19.285715 54.285713 0 1 1  259.99999,272.36218 A 19.285715 54.285713 0 1 1  298.57142 272.36218 z"
           transform="matrix(8.733546e-2,1.140962,-0.983818,7.905314e-2,499.2775,-69.2519)" />
        <path
           sodipodi:type="arc"
           style="opacity:1;color:#000000;fill:url(#radialGradient9844);fill-opacity:1;fill-rule:evenodd;stroke:none;stroke-width:5.15069628;stroke-linecap:butt;stroke-linejoin:miter;marker:none;marker-start:none;marker-mid:none;marker-end:none;stroke-miterlimit:4;stroke-dasharray:none;stroke-dashoffset:0;stroke-opacity:1;visibility:visible;display:inline;overflow:visible"
           id="path4376"
           sodipodi:cx="216.17264"
           sodipodi:cy="209.89496"
           sodipodi:rx="28.284271"
           sodipodi:ry="69.700523"
           d="M 244.45691 209.89496 A 28.284271 69.700523 0 1 1  187.88837,209.89496 A 28.284271 69.700523 0 1 1  244.45691 209.89496 z"
           transform="matrix(1,0,0,0.942341,-3.030458,6.041437)" />
        <path
           style="opacity:1;color:#000000;fill:url(#radialGradient9846);fill-opacity:1;fill-rule:evenodd;stroke:none;stroke-width:0.99999964;stroke-linecap:butt;stroke-linejoin:miter;marker:none;marker-start:none;marker-mid:none;marker-end:none;stroke-miterlimit:4;stroke-dashoffset:0;stroke-opacity:1;visibility:visible;display:inline;overflow:visible"
           d="M 270.38774,291.60225 C 290.89038,314.40038 301.17573,347.2145 287.39227,359.79578 C 271.37328,374.41762 240.61452,359.61409 220.11187,336.81596 C 199.60923,314.01783 194.23119,285.38712 208.10733,272.90813 C 221.98347,260.42915 249.88509,268.80411 270.38774,291.60225 z "
           id="path7030"
           sodipodi:nodetypes="csssc" />
      </g>
      <path
         sodipodi:nodetypes="ccccccccc"
         d="M 398.01602,302.1381 L 563.73031,342.1381 L 580.87317,254.99525 L 500.87317,147.85239 L 398.01602,302.1381 z M 563.73031,342.1381 L 500.45474,147.76573 M 398.60776,301.63303 L 581.37825,255.91874"
         style="opacity:0.85488957;fill:none;fill-opacity:0.75;fill-rule:evenodd;stroke:#ff0000;stroke-width:2;stroke-linecap:butt;stroke-linejoin:miter;stroke-miterlimit:4;stroke-dasharray:none;stroke-opacity:1"
         id="path9673" />
      <path
         id="path9689"
         style="opacity:0.5;color:#000000;fill:none;fill-opacity:1;fill-rule:evenodd;stroke:#000000;stroke-width:4;stroke-linecap:butt;stroke-linejoin:miter;stroke-miterlimit:4;stroke-dashoffset:0;stroke-opacity:1;marker:none;marker-start:none;marker-mid:none;marker-end:none;visibility:visible;display:inline;overflow:visible;stroke-dasharray:none"
         d="M 525.15367,153.44886 C 560.95141,166.01344 582.24849,202.23661 582.14481,243.60358M 391.4652,276.38376 C 376.39209,214.60941 409.29442,163.36742 469.85031,153.22267M 399.34244,323.90112 C 428.53601,355.64164 486.25061,366.46507 537.17895,358.50261" />
      <path
         transform="translate(-4.04061,-5.050763)"
         style="font-size:29px;font-style:normal;font-variant:normal;font-weight:normal;font-stretch:normal;text-align:start;line-height:125%;writing-mode:lr-tb;text-anchor:start;fill:#000000;fill-opacity:1;stroke:none;stroke-width:1px;stroke-linecap:butt;stroke-linejoin:miter;stroke-opacity:1;font-family:Arial"
         d="M 391.95619,218.00678 L 391.29308,220.46784 L 375.61067,216.24233 C 376.01618,216.98709 376.37132,217.91869 376.67611,219.03715 C 376.98338,220.1465 377.17513,221.12208 377.25139,221.96387 L 374.87236,221.32286 C 374.59606,219.77212 374.13636,218.35772 373.49325,217.07966 C 372.85018,215.80162 372.15338,214.83174 371.40287,214.17 L 371.83021,212.58398 L 391.95619,218.00678 M 384.58109,207.37031 C 382.35884,206.32831 380.67869,205.2642 379.54063,204.17798 C 378.39807,203.07922 377.66965,201.90878 377.35539,200.66666 C 377.04516,199.41601 377.21066,198.10691 377.85187,196.73935 C 378.3248,195.7308 378.94472,194.94235 379.71166,194.37401 C 380.47007,193.80169 381.35012,193.448 382.3518,193.31294 C 383.34495,193.17391 384.45894,193.22185 385.69377,193.45677 C 386.92007,193.68772 388.46485,194.24002 390.32813,195.11368 C 392.53329,196.14768 394.20917,197.20978 395.35576,198.29999 C 396.4938,199.38622 397.22222,200.55666 397.54101,201.81131 C 397.85525,203.05344 397.68976,204.36254 397.04452,205.73862 C 396.19489,207.55063 394.87803,208.66914 393.09393,209.09418 C 390.94868,209.60011 388.11108,209.02549 384.58109,207.37031 M 385.69323,204.99847 C 388.77876,206.44525 391.00267,207.05012 392.36497,206.81308 C 393.72274,206.56349 394.6501,205.90877 395.14705,204.84891 C 395.64401,203.78908 395.54798,202.65971 394.85897,201.46082 C 394.17396,200.2534 392.29297,198.9283 389.21599,197.48551 C 386.12193,196.03475 383.89601,195.43415 382.53823,195.68373 C 381.18449,195.92479 380.25512,196.58378 379.75014,197.66071 C 379.2532,198.72057 379.30517,199.77714 379.90603,200.83043 C 380.67865,202.16235 382.60771,203.5517 385.69323,204.99847 M 397.22731,194.06431 L 398.46884,191.94039 C 399.52625,192.44182 400.43637,192.60565 401.19923,192.43189 C 401.96208,192.25814 402.60997,191.79895 403.14292,191.05432 C 403.59894,190.41718 403.85143,189.75625 403.90037,189.07151 C 403.9548,188.37912 403.85009,187.70632 403.58625,187.05311 C 403.31472,186.39443 402.8386,185.66476 402.15789,184.8641 C 401.47717,184.06347 400.70693,183.35547 399.84717,182.74009 C 399.75505,182.67418 399.61413,182.57912 399.4244,182.45492 C 399.78788,183.34197 399.91866,184.29463 399.81673,185.31289 C 399.71261,186.31802 399.36112,187.23894 398.76224,188.07567 C 397.76228,189.47279 396.40952,190.29235 394.70394,190.53433 C 392.99837,190.77633 391.31652,190.30395 389.65839,189.11718 C 387.94655,187.89196 386.9285,186.40293 386.60423,184.65008 C 386.28549,182.88957 386.67004,181.24934 387.7579,179.72938 C 388.54359,178.63166 389.55614,177.84141 390.79554,177.35863 C 392.04046,176.86821 393.37936,176.78169 394.81224,177.09909 C 396.24295,177.40335 397.99463,178.2972 400.06728,179.78064 C 402.22437,181.32455 403.77632,182.7894 404.72315,184.1752 C 405.66229,185.55552 406.13338,186.94911 406.13644,188.35596 C 406.14497,189.75515 405.7042,191.07653 404.81414,192.32011 C 403.86912,193.64047 402.73254,194.45804 401.4044,194.77282 C 400.06858,195.08211 398.67622,194.84594 397.22731,194.06431 M 395.85121,180.24575 C 394.66136,179.39415 393.48914,179.03693 392.33455,179.17408 C 391.18546,179.30359 390.29225,179.81358 389.6549,180.70403 C 388.9956,181.62522 388.7976,182.69664 389.06089,183.91827 C 389.32421,185.13993 390.05462,186.1793 391.25215,187.0364 C 392.32686,187.80561 393.43274,188.10954 394.56978,187.94821 C 395.70466,187.77372 396.61273,187.21053 397.29402,186.25863 C 397.98081,185.29908 398.21005,184.27324 397.98173,183.18111 C 397.75124,182.07583 397.04107,181.09738 395.85121,180.24575 M 411.60511,183.31513 L 409.49925,181.31718 L 411.4972,179.21132 L 413.60306,181.20927 C 414.37692,181.94347 414.87017,182.6717 415.08281,183.39395 C 415.30229,184.1227 415.25952,184.90843 414.95449,185.75113 L 413.6762,185.51431 C 413.87534,184.96152 413.89484,184.43349 413.73471,183.93021 C 413.58141,183.43344 413.20292,182.87914 412.59921,182.26733 L 411.60511,183.31513 M 412.73328,174.14894 L 414.67785,172.29626 C 415.64825,173.18775 416.62004,173.66642 417.59321,173.73227 C 418.56783,173.78487 419.45255,173.49192 420.2474,172.85342 C 421.20414,172.08487 421.72402,171.07394 421.80702,169.82061 C 421.89,168.5673 421.45263,167.34451 420.4949,166.15224 C 419.58445,165.01887 418.546,164.38184 417.37955,164.24116 C 416.22046,164.0946 415.12574,164.43515 414.09539,165.26281 C 413.4551,165.77717 412.99561,166.38845 412.71691,167.09666 C 412.43231,167.79753 412.32904,168.49803 412.40711,169.19816 L 410.34635,170.45397 L 405.23637,160.88202 L 413.28413,154.41728 L 414.80942,156.31607 L 408.35134,161.50382 L 410.9732,166.55393 C 411.40078,165.09648 412.14813,163.93913 413.21528,163.08188 C 414.62832,161.9468 416.21373,161.47847 417.97149,161.67691 C 419.72925,161.87537 421.22593,162.74368 422.46154,164.28182 C 423.63802,165.7464 424.22802,167.35515 424.23154,169.10808 C 424.24616,171.25169 423.3556,173.04475 421.55986,174.48726 C 420.08792,175.66966 418.55356,176.22413 416.95675,176.15067 C 415.36729,176.0713 413.95947,175.40406 412.73328,174.14894 M 420.81211,153.40769 C 420.26501,152.47004 420.12899,151.47831 420.40407,150.43249 C 420.68731,149.38195 421.29369,148.58549 422.22319,148.04311 C 423.16902,147.49126 424.16483,147.35287 425.21063,147.62793 C 426.25643,147.90304 427.05289,148.50941 427.6,149.44706 C 428.14712,150.38474 428.28144,151.38293 428.00296,152.44163 C 427.72787,153.48745 427.1215,154.2839 426.18383,154.831 C 425.25432,155.37338 424.26259,155.50939 423.20863,155.23905 C 422.16283,154.96398 421.36399,154.35353 420.81211,153.40769 M 422.14523,152.62984 C 422.47826,153.20061 422.96348,153.57327 423.60088,153.74781 C 424.24168,153.90948 424.84746,153.82379 425.41821,153.49075 C 425.98081,153.1625 426.34531,152.68204 426.51172,152.04938 C 426.68153,151.40384 426.59992,150.79568 426.26689,150.22491 C 425.93386,149.65418 425.44695,149.28798 424.80615,149.1263 C 424.16875,148.95176 423.56875,149.02862 423.00614,149.35686 C 422.43539,149.68991 422.06512,150.1792 421.8953,150.82474 C 421.7289,151.4574 421.81221,152.0591 422.14523,152.62984"
         id="text9695" />
      <path
         transform="translate(7.071068,-3.030458)"
         style="font-size:29px;font-style:normal;font-variant:normal;font-weight:normal;font-stretch:normal;text-align:start;line-height:125%;writing-mode:lr-tb;text-anchor:start;fill:#000000;fill-opacity:1;stroke:none;stroke-width:1px;stroke-linecap:butt;stroke-linejoin:miter;stroke-opacity:1;font-family:Arial"
         d="M 548.55121,166.44672 L 546.51489,164.91376 L 556.28321,151.93791 C 555.44096,152.03647 554.44412,152.01864 553.29268,151.8844 C 552.14875,151.75586 551.17204,151.57002 550.36252,151.3269 L 551.84438,149.35846 C 553.3863,149.68031 554.8701,149.78115 556.29579,149.66098 C 557.72145,149.54083 558.88121,149.25593 559.77507,148.80628 L 561.08736,149.79419 L 548.55121,166.44672 M 561.28924,163.80656 C 563.12332,162.17552 564.76389,161.05135 566.21095,160.43404 C 567.67131,159.81753 569.03417,159.60987 570.29954,159.81105 C 571.57115,160.0193 572.70882,160.68776 573.71256,161.81643 C 574.45279,162.64883 574.93277,163.5295 575.15251,164.45843 C 575.37926,165.3811 575.35713,166.3293 575.08612,167.30304 C 574.82212,168.2705 574.33865,169.27525 573.63569,170.31729 C 572.93975,171.35306 571.82288,172.55472 570.28509,173.92229 C 568.46509,175.54079 566.82804,176.66182 565.37396,177.28541 C 563.9269,177.9027 562.56404,178.11036 561.28536,177.9084 C 560.02,177.7072 558.88233,177.03874 557.87234,175.90302 C 556.54241,174.40752 556.03403,172.75623 556.34721,170.94914 C 556.7285,168.77828 558.37585,166.39742 561.28924,163.80656 M 563.03007,165.7641 C 560.48349,168.02875 559.05043,169.83374 558.73089,171.17909 C 558.42466,172.52521 558.66049,173.63563 559.43838,174.51036 C 560.21625,175.38507 561.29192,175.74232 562.66539,175.58208 C 564.04511,175.4289 566.00473,174.22312 568.54426,171.96475 C 571.09786,169.69383 572.52779,167.88531 572.83403,166.53919 C 573.14651,165.20012 572.90754,164.08617 572.11713,163.19734 C 571.33923,162.32262 570.34783,161.9536 569.14294,162.09027 C 567.61424,162.27486 565.57662,163.49947 563.03007,165.7641 M 568.49851,180.71015 L 569.95665,182.69162 C 569.07729,183.4638 568.56624,184.23452 568.42352,185.00379 C 568.28079,185.77304 568.44567,186.54986 568.91818,187.33422 C 569.32248,188.00538 569.82928,188.49908 570.43858,188.81532 C 571.05273,189.13964 571.71195,189.31009 572.41624,189.32666 C 573.1286,189.33835 573.9872,189.19032 574.99204,188.88257 C 575.99686,188.5748 576.95211,188.14814 577.85778,187.60257 C 577.9548,187.54411 578.09792,187.45239 578.28713,187.3274 C 577.32866,187.30966 576.40216,187.05226 575.50762,186.5552 C 574.62602,186.06135 573.91975,185.37373 573.3888,184.49233 C 572.50223,183.02063 572.28577,181.45386 572.73939,179.792 C 573.19299,178.13014 574.29311,176.77312 576.03975,175.72094 C 577.84297,174.63468 579.61351,174.28995 581.35137,174.68676 C 583.09408,175.09167 584.44769,176.09466 585.4122,177.69573 C 586.10876,178.85206 586.43312,180.09485 586.38531,181.42411 C 586.34231,182.76145 585.89123,184.02504 585.03207,185.21488 C 584.18581,186.40793 582.67106,187.66206 580.48779,188.97729 C 578.21555,190.34608 576.25566,191.19059 574.60813,191.51083 C 572.96866,191.82617 571.50248,191.70653 570.20957,191.1519 C 568.92152,190.60533 567.88294,189.67707 567.09381,188.36711 C 566.25596,186.97627 565.95566,185.60878 566.1929,184.26462 C 566.43821,182.91558 567.20675,181.73076 568.49851,180.71015 M 581.73128,184.92201 C 582.98463,184.16697 583.77708,183.23224 584.10864,182.11781 C 584.44503,181.01146 584.33071,179.98928 583.76567,179.05128 C 583.18111,178.08093 582.27585,177.47461 581.04988,177.23231 C 579.82388,176.99001 578.58016,177.24881 577.31873,178.00871 C 576.18664,178.69068 575.4694,179.58562 575.167,180.69352 C 574.87754,181.80464 575.03483,182.86155 575.63886,183.86425 C 576.24775,184.87502 577.09879,185.49196 578.192,185.71507 C 579.29814,185.94139 580.4779,185.67704 581.73128,184.92201 M 572.69842,198.15681 L 575.35646,196.99009 L 576.52318,199.64813 L 573.86513,200.81485 C 572.88835,201.24359 572.02586,201.41598 571.27766,201.33203 C 570.52081,201.25185 569.8131,200.90784 569.15452,200.3 L 569.86835,199.21346 C 570.30072,199.61131 570.7799,199.83398 571.30591,199.88146 C 571.82326,199.93272 572.48094,199.79868 573.27893,199.47935 L 572.69842,198.15681 M 580.66869,202.67081 L 581.66147,205.16644 C 580.47216,205.73387 579.6653,206.4567 579.2409,207.33492 C 578.82825,208.21944 578.76973,209.14956 579.06533,210.12531 C 579.42114,211.2998 580.16491,212.1595 581.29663,212.70439 C 582.42835,213.24927 583.72601,213.30002 585.18963,212.85664 C 586.58095,212.43513 587.5596,211.70958 588.12557,210.67998 C 588.69426,209.6594 588.78702,208.5167 588.40385,207.25185 C 588.16572,206.46584 587.77017,205.81136 587.21721,205.28842 C 586.67326,204.76274 586.06195,204.40542 585.3833,204.21647 L 584.98762,201.83587 L 595.7752,200.6688 L 598.76812,210.54816 L 596.43718,211.25431 L 594.03546,203.32643 L 588.37167,203.87339 C 589.56412,204.81416 590.35879,205.93955 590.75567,207.24957 C 591.28116,208.98421 591.12375,210.62983 590.28345,212.18643 C 589.44311,213.74301 588.07884,214.80732 586.19061,215.37937 C 584.39272,215.92402 582.68002,215.87078 581.05251,215.21964 C 579.05843,214.43293 577.72747,212.93736 577.05965,210.73292 C 576.51224,208.92599 576.57068,207.29556 577.23496,205.84163 C 577.90197,204.39672 579.04655,203.33978 580.66869,202.67081 M 596.89817,217.56371 C 597.96901,217.38535 598.94439,217.61048 599.82429,218.23911 C 600.70571,218.87705 601.23483,219.7268 601.41166,220.78834 C 601.59155,221.86851 601.36719,222.84854 600.73858,223.72843 C 600.10993,224.60831 599.26019,225.13743 598.18935,225.3158 C 597.11847,225.49416 596.13767,225.26514 595.24694,224.62876 C 594.36704,224.00012 593.83791,223.15038 593.65957,222.07952 C 593.48274,221.01797 593.70788,220.0426 594.33497,219.1534 C 594.96358,218.27352 595.81798,217.74362 596.89817,217.56371 M 597.15176,219.08619 C 596.49991,219.19476 595.9792,219.51595 595.58962,220.04978 C 595.21088,220.59137 595.07579,221.18808 595.18438,221.83991 C 595.29138,222.48242 595.61102,222.99382 596.14332,223.3741 C 596.68644,223.76214 597.28392,223.90188 597.93577,223.79332 C 598.58758,223.68475 599.10286,223.35967 599.48161,222.81808 C 599.87118,222.28425 600.01247,221.69608 599.90547,221.05357 C 599.79688,220.40174 599.47103,219.8818 598.92791,219.49376 C 598.39562,219.11348 597.80356,218.97762 597.15176,219.08619"
         id="use9699" />
      <path
         transform="translate(4.04061,-5.050763)"
         style="font-size:29px;font-style:normal;font-variant:normal;font-weight:normal;font-stretch:normal;text-align:start;line-height:125%;writing-mode:lr-tb;text-anchor:start;fill:#000000;fill-opacity:1;stroke:none;stroke-width:1px;stroke-linecap:butt;stroke-linejoin:miter;stroke-opacity:1;font-family:Arial"
         d="M 437.17319,348.95151 L 435.07017,348.0575 L 440.76701,334.6566 C 440.05542,334.9243 439.18417,335.12411 438.15326,335.25604 C 437.13012,335.39129 436.2401,335.44057 435.48319,335.40388 L 436.3474,333.37097 C 437.75862,333.31795 439.07151,333.08517 440.2861,332.67263 C 441.50067,332.26012 442.44828,331.7617 443.12893,331.17736 L 444.48421,331.7535 L 437.17319,348.95151 M 445.35708,342.35899 C 446.01112,340.25793 446.75103,338.63565 447.57679,337.49216 C 448.41313,336.34312 449.36374,335.55318 450.42859,335.12233 C 451.50151,334.69403 452.68446,334.68112 453.97744,335.08359 C 454.93099,335.38045 455.70701,335.83475 456.30549,336.44652 C 456.90645,337.05022 457.32809,337.78867 457.57041,338.66186 C 457.81521,339.52698 457.9087,340.52228 457.85088,341.64774 C 457.79554,342.76513 457.49369,344.20466 456.94531,345.96632 C 456.29628,348.05124 455.55763,349.66947 454.72937,350.82103 C 453.9036,351.96451 452.953,352.75445 451.87757,353.19086 C 450.81271,353.62169 449.62976,353.6346 448.32872,353.2296 C 446.61553,352.69629 445.46122,351.66329 444.86578,350.13059 C 444.15438,348.287 444.31814,345.69647 445.35708,342.35899 M 447.59957,343.05706 C 446.69144,345.97433 446.42585,348.02347 446.8028,349.2045 C 447.19033,350.37997 447.88512,351.12367 448.88718,351.4356 C 449.88922,351.74753 450.88058,351.52429 451.86127,350.76587 C 452.85001,350.00997 453.7972,348.17743 454.70282,345.26825 C 455.61344,342.34292 455.87499,340.29252 455.48747,339.11704 C 455.108,337.9441 454.40917,337.19914 453.39097,336.88216 C 452.38891,336.57024 451.45682,336.74546 450.59469,337.4078 C 449.50606,338.25673 448.50769,340.13981 447.59957,343.05706 M 457.73711,351.18505 L 459.92628,351.45433 C 459.8883,352.50285 460.07609,353.31039 460.48967,353.87696 C 460.90323,354.44353 461.51107,354.81423 462.31321,354.98907 C 462.99956,355.13868 463.63334,355.11224 464.21454,354.90975 C 464.804,354.70907 465.32089,354.3843 465.76523,353.93542 C 466.21136,353.47828 466.64339,352.8275 467.06134,351.98307 C 467.47927,351.13865 467.78918,350.25335 467.99107,349.32717 C 468.01268,349.22795 468.04099,349.0782 468.07599,348.87792 C 467.47442,349.49176 466.73632,349.93724 465.86167,350.21435 C 464.99708,350.485 464.11411,350.52209 463.21276,350.32562 C 461.70772,349.99757 460.5532,349.17421 459.74919,347.85554 C 458.94517,346.53688 458.73783,344.98445 459.12716,343.19826 C 459.52911,341.3542 460.3943,339.98791 461.72272,339.09938 C 463.05941,338.21269 464.54642,337.94777 466.18377,338.30465 C 467.36628,338.56242 468.37604,339.11601 469.21305,339.96542 C 470.0583,340.81667 470.60427,341.88853 470.85097,343.18099 C 471.1077,344.467 470.99275,346.22637 470.5061,348.45909 C 469.99959,350.78279 469.34362,352.58016 468.53819,353.85119 C 467.73454,355.11396 466.75401,355.99601 465.59662,356.49735 C 464.44747,357.00049 463.20308,357.10606 461.86345,356.81406 C 460.44111,356.50403 459.36488,355.85799 458.63475,354.87593 C 457.90642,353.8856 457.60721,352.65531 457.73711,351.18505 M 468.62821,345.15224 C 468.90758,343.8705 468.7861,342.77857 468.26378,341.87644 C 467.7497,340.97613 467.01305,340.42143 466.05381,340.21233 C 465.06147,339.99605 464.109,340.21289 463.1964,340.86286 C 462.28377,341.51285 461.68687,342.48285 461.40569,343.77286 C 461.15334,344.93059 461.29518,345.949 461.83119,346.8281 C 462.37727,347.70076 463.16301,348.24883 464.18842,348.47233 C 465.22209,348.69765 466.1481,348.52268 466.96648,347.94743 C 467.7949,347.36574 468.34881,346.43401 468.62821,345.15224 M 471.87881,358.41506 L 472.28115,355.84381 L 474.8524,356.24615 L 474.45006,358.8174 C 474.3022,359.76228 474.0159,360.49704 473.59115,361.02166 C 473.16509,361.55465 472.56346,361.9231 471.78627,362.12702 L 471.31025,361.0631 C 471.81959,360.92863 472.21919,360.6742 472.50908,360.2998 C 472.79764,359.93376 473.01401,359.37225 473.15816,358.61525 L 471.87881,358.41506 M 478.27096,354.52536 L 480.67867,354.56265 C 480.73898,355.74253 481.05959,356.6593 481.6405,357.31297 C 482.23067,357.95906 482.98051,358.32771 483.89002,358.41891 C 484.98478,358.52869 485.9525,358.20893 486.79318,357.45964 C 487.63385,356.71036 488.12258,355.65359 488.25939,354.28933 C 488.38943,352.99246 488.1257,351.93254 487.46821,351.10957 C 486.81913,350.28746 485.9051,349.81728 484.72612,349.69905 C 483.99346,349.6256 483.3155,349.72773 482.69224,350.00546 C 482.06981,350.27479 481.56357,350.65784 481.17352,351.15459 L 479.06659,350.66262 L 481.81413,341.33062 L 491.02283,342.25402 L 490.80496,344.42672 L 483.41526,343.68572 L 481.91827,348.56264 C 483.10757,347.89936 484.31276,347.62894 485.53386,347.75137 C 487.15074,347.91352 488.45883,348.61033 489.45815,349.84182 C 490.45744,351.07333 490.86884,352.56911 490.69237,354.32915 C 490.52431,356.005 489.89063,357.40448 488.79132,358.52762 C 487.4536,359.90754 485.75734,360.49448 483.70255,360.28844 C 482.01828,360.11955 480.68869,359.50989 479.71377,358.45946 C 478.74726,357.40987 478.26632,356.09851 478.27096,354.52536 M 493.34893,345.31072 C 493.38717,344.33818 493.76226,343.52286 494.47421,342.86476 C 495.19461,342.20702 496.03686,341.8971 497.00097,341.93498 C 497.98197,341.97357 498.80152,342.34883 499.45962,343.06076 C 500.11769,343.77273 500.42762,344.61498 500.38939,345.58752 C 500.35115,346.56009 499.97166,347.37947 499.25093,348.04567 C 498.53897,348.70377 497.69672,349.01369 496.72417,348.97544 C 495.76007,348.93755 494.94475,348.56246 494.27821,347.85016 C 493.62012,347.13823 493.31036,346.29175 493.34893,345.31072 M 494.73165,345.36508 C 494.70837,345.95709 494.89562,346.47265 495.29339,346.91178 C 495.69995,347.34281 496.19922,347.56996 496.79122,347.59322 C 497.37474,347.61618 497.88185,347.4286 498.31255,347.03048 C 498.75201,346.62427 498.98339,346.12516 499.00667,345.53316 C 499.02994,344.94118 498.83829,344.42968 498.43174,343.99864 C 498.03397,343.55952 497.54332,343.32848 496.95979,343.30552 C 496.36779,343.28226 495.85206,343.47374 495.41259,343.87995 C 494.9819,344.27806 494.75492,344.77311 494.73165,345.36508"
         id="use9703" />
    </g>
  </g>
</svg>
